<svg width="566" height="142" viewBox="0 0 566 142" fill="none" xmlns="http://www.w3.org/2000/svg">
<g clip-path="url(#clip0_74_353)">
<path d="M106.464 123.182C84.8667 119.532 67.4946 102.698 62.974 81.3752C62.3836 78.59 63.1918 77.5699 66.0708 77.6448C70.2468 77.7536 74.4469 77.9425 78.6058 77.3226C81.1859 76.938 82.031 78.4488 82.723 80.5479C86.3877 91.6654 93.9412 99.0206 104.838 103.013C111.13 105.319 117.565 105.29 124.028 103.838C125.293 103.554 126.618 103.264 127.809 101.899C123.454 95.877 117.589 89.6829 113 83.5C120 84.5 127 85 134.5 85.5C136.5 86 137.573 86.8268 138.861 88.1607C140.148 89.4947 140.745 90.8777 142.211 91.738C150.787 83.5748 153.243 65.0557 143.865 51.4177C137.466 42.1123 128.393 36.9685 116.924 36.3296C105.54 35.6954 96.5819 40.7646 88.5093 48.8105C87.3121 45.4873 87.447 42.7384 89.7111 41.0726C95.0597 37.1372 95.5999 31.8421 95.2145 25.8727C94.8824 20.7277 95.1461 20.7014 99.9865 19.212C130.836 9.71959 163.178 29.8778 168.27 61.7933C170.774 77.4867 167.791 91.8161 157.395 104.174C155.819 106.047 156.068 107.165 157.618 108.88C163.893 115.827 168.29 122.34 176.178 129.962C177.839 131.568 180.712 132.948 180.5 134C177.853 134.842 162.238 136.062 159.5 136.5C150.393 137.958 157.618 137.673 147.248 123.203C142.846 117.059 142.289 117.62 135.284 120.451C126.077 124.173 116.499 124.727 106.464 123.182Z" fill="url(#paint0_linear_74_353)"/>
<path d="M381.811 58.6451C382.683 61.5617 383.049 64.2708 383.041 67.0477C383.018 74.8687 383.054 82.6898 383.035 90.5108C382.993 108.127 374.268 118.249 356.851 120.051C348.223 120.944 339.473 121.001 330.985 118.436C319.247 114.888 312.538 105.225 313.262 92.9776C313.925 81.7762 322.204 73.0105 334.07 71.1472C343.039 69.7386 352.089 70.7013 361.101 70.4993C365.703 70.396 365.994 70.1636 365.541 65.6118C365.039 60.5703 361.436 56.7097 355.926 56.3833C345.603 55.772 335.249 55.7664 324.938 56.774C320.952 57.1636 320.533 56.9837 320.502 52.9539C320.483 50.5307 320.646 48.0973 320.476 45.6864C320.285 42.9932 321.565 41.6769 323.957 40.8681C327.767 39.5795 331.708 39.286 335.658 39.1218C344.341 38.7609 353.084 38.2163 361.64 40.044C371.774 42.2085 378.794 48.1552 381.811 58.6451ZM339.416 103.338C344.035 103.383 348.655 103.507 353.273 103.457C362.149 103.36 367.021 97.7064 366.09 88.8148C365.937 87.3444 365.403 86.5552 363.891 86.5659C355.31 86.6264 346.722 86.5046 338.151 86.827C334.072 86.9804 331.069 90.3759 330.802 94.0802C330.506 98.2008 332.803 101.46 336.94 102.756C337.568 102.953 338.222 103.067 339.416 103.338Z" fill="url(#paint1_linear_74_353)"/>
<path d="M209.04 38.72C222.887 37.0245 234.816 40.6721 244.192 50.6374C255.84 63.0182 259.112 77.7718 253.244 93.7422C247.586 109.14 236.24 118.418 219.753 120.497C201.77 122.764 185.283 113.624 177.745 97.6489C170.016 81.2674 173.406 61.7199 186.16 49.4848C192.488 43.4152 200.109 39.9855 209.04 38.72ZM221.877 56.7295C217.476 55.2526 212.99 54.9986 208.573 56.3995C195.572 60.5222 188.74 73.2599 192.301 86.4992C195.313 97.6953 207.612 105.516 218.511 103.166C229.053 100.893 236.976 92.2092 237.848 81.9693C238.808 70.7081 232.985 61.2821 221.877 56.7295Z" fill="url(#paint2_linear_74_353)"/>
<path d="M427.049 108.449C430.353 100.287 433.545 93.7103 437.62 84.2287C438.749 81.6027 440.5 78.5 440.5 78.5L441.5 76.5C441.5 76.5 443.966 71.4385 445.546 67.2342C446 66.0659 446.481 65.255 446.941 64.2542C448.902 59.9853 450.866 55.718 452.83 51.448C454.22 51.9853 454.408 53.0493 454.783 53.918C462.516 71.8176 470.96 89.3951 478.883 107.205C482.088 114.41 486.803 118.051 494.64 117.524C497.054 117.362 499.628 118.247 502.05 116.556C500.565 113.326 499.159 110.228 497.719 107.147C486.95 84.0931 476.153 61.0519 465.415 37.9838C462.916 32.6164 458.871 29.8743 452.928 29.9651C447.14 30.0535 443.251 32.8165 440.818 38.0617C430.062 61.246 419.215 84.3878 408.426 107.557C407.051 110.511 405.826 113.535 404.5 116.599C407.313 118.207 410.012 117.368 412.58 117.511C419.487 117.896 424.34 115.143 427.049 108.449Z" fill="url(#paint3_linear_74_353)"/>
<path d="M280.78 63.9419C279.894 66.3977 279.736 68.6906 279.741 71.0215C279.775 85.5715 279.79 100.121 279.797 114.671C279.799 119.024 279.76 119.054 275.335 119.066C271.811 119.076 268.285 119.006 264.761 119.066C262.674 119.102 261.773 118.257 261.816 116.121C262.156 99.1529 261.363 82.1643 262.427 65.2134C263.286 51.5177 272.872 41.622 286.954 39.3823C293.198 38.3894 299.453 38.4125 305.698 39.4164C309.801 40.0759 310.356 40.7583 310.37 45.0499C310.377 47.2544 310.391 49.459 310.389 51.6636C310.385 57.05 310.392 56.9877 305.234 56.1139C300.43 55.3001 295.607 55.2153 290.803 56.2243C286.325 57.1649 282.968 59.5898 280.78 63.9419Z" fill="url(#paint4_linear_74_353)"/>
<path d="M506.307 113.555C506.355 89.8925 506.406 66.5513 506.449 43.21C506.456 39.3179 506.752 39.107 510.536 39.1656C514.05 39.2199 517.567 39.0209 521.082 38.962C523.01 38.9297 524.155 39.6118 524.144 41.8477C524.023 65.8375 523.951 89.8276 523.88 113.818C523.865 118.811 523.894 118.817 518.768 118.898C516.348 118.936 513.927 118.962 511.507 118.965C506.366 118.972 506.366 118.964 506.307 113.555Z" fill="url(#paint5_linear_74_353)"/>
<path fill-rule="evenodd" clip-rule="evenodd" d="M56.4571 16.5391C58.3459 14.6273 60.5208 14.4177 62.7452 15.8506C65.0023 17.3048 65.6371 20.4161 64.3252 22.9053C60.7409 29.7063 60.8443 30.4212 66.3604 36.0284C68.0232 38.4424 71.2735 39.9745 69.6016 44.0811C66.6612 42.2204 65.031 39.5381 62.7754 37.5596C59.7147 34.8749 57.656 31.8739 58.4414 27.5557C58.7716 25.741 57.3531 24.868 56.3409 23.7178C54.3998 21.5122 54.4933 18.5269 56.4571 16.5391ZM59.5 18C58.6717 18.0001 58.0001 18.6717 58 19.5C58 20.3284 58.6716 21 59.5 21C60.3285 21 61 20.3285 61 19.5C61 18.6716 60.3284 18 59.5 18Z" fill="#15A2D1"/>
<path fill-rule="evenodd" clip-rule="evenodd" d="M87.7722 9.37299C89.4138 7.46326 91.5763 7.06791 93.7361 8.18549C96.4219 9.5753 97.3339 11.8898 96.2048 15.0732C93.5741 17.416 93.0193 20.1827 93.3386 23.289C93.4616 24.4863 93.2372 25.7267 93.4197 26.9091C94.2579 32.3402 92.859 36.8038 88.199 40.0634C85.075 42.2487 86.4769 45.6615 86.0788 48.5878C85.8664 50.1508 87.1159 52.7796 84.4753 52.831C81.8923 52.8812 82.142 50.284 81.8689 48.3056C81.1262 42.9262 82.613 38.6212 87.28 35.5615C89.2866 34.246 89.9682 32.3052 89.8406 29.8779C89.6735 26.7002 89.7749 23.5063 89.822 20.3203C89.8425 18.9372 89.4845 17.8658 88.4929 16.7841C86.1922 14.2745 85.9783 11.4602 87.7722 9.37299ZM91.9997 10.9999C90.8952 10.9999 89.9997 11.8954 89.9997 12.9999C89.9999 14.1044 90.8953 14.9999 91.9997 14.9999C93.1042 14.9999 93.9996 14.1044 93.9997 12.9999C93.9997 11.8954 93.1043 10.9999 91.9997 10.9999Z" fill="#15A2D1"/>
<path fill-rule="evenodd" clip-rule="evenodd" d="M45.1552 36.4784C47.3324 34.6756 50.2751 35.1764 52.7128 37.7538C53.1609 38.2276 53.5926 39.0005 54.1142 39.078C60.3626 40.0069 62.6061 46.004 67.0273 49.2235C67.419 49.5091 67.7928 50.1585 67.7714 50.62C67.5693 54.9582 70.7845 55.5152 73.8456 56.0741C78.5455 56.9323 81.893 61.2322 81.5537 65.8436C81.332 68.854 80.0816 70.3064 76.9892 69.952C76.2275 69.8648 75.4506 69.9086 74.3886 69.8807C71.3695 69.9725 69.7313 68.7308 67.9863 66.4911C65.1739 62.8814 61.6527 59.7823 58.2031 56.7255C55.6659 54.4773 51.7435 54.8693 49.1025 57.1874C46.7911 59.2162 43.69 59.2007 41.6601 57.1503C39.6882 55.158 39.5896 51.6845 41.4472 49.6405C43.3628 47.533 46.6316 47.2765 48.79 49.6044C50.5015 51.4503 52.3997 51.5199 54.4638 51.3739C57.0889 51.1884 59.018 52.1369 60.871 54.0135C64.1702 57.3547 67.744 60.4252 71.415 63.4061C70.8855 60.8967 68.6941 59.7494 67.123 58.1317C65.7233 56.6904 64.2219 55.393 64.3876 53.1249C64.4704 51.9941 63.6893 51.3323 62.9833 50.6337C61.2634 48.9315 59.5071 47.2629 57.8417 45.5087C56.0083 43.5774 54.4549 42.5216 51.8124 44.7675C49.2201 46.9708 46.0525 46.2688 44.2539 43.8495C42.4638 41.4414 42.8359 38.399 45.1552 36.4784ZM75.9999 62.9999C74.8954 62.9999 73.9999 63.8953 73.9999 64.9999C74 66.1044 74.8954 66.9999 75.9999 66.9999C77.1045 66.9999 77.9999 66.1044 77.9999 64.9999C77.9999 63.8953 77.1045 62.9999 75.9999 62.9999ZM44.9999 50.9999C43.8954 50.9999 42.9999 51.8953 42.9999 52.9999C43 54.1044 43.8954 54.9999 44.9999 54.9999C46.1045 54.9999 46.9999 54.1044 46.9999 52.9999C46.9999 51.8953 46.1045 50.9999 44.9999 50.9999ZM46.9999 37.9999C45.8954 37.9999 44.9999 38.8953 44.9999 39.9999C45 41.1044 45.8954 41.9999 46.9999 41.9999C47.0898 41.9999 47.1779 41.9909 47.2646 41.9794C47.3414 41.9915 47.4198 41.9999 47.4999 41.9999C48.3282 41.9998 48.9997 41.3281 48.9999 40.4999C48.9999 40.4198 48.9915 40.3412 48.9794 40.2645C48.9909 40.1778 48.9999 40.0897 48.9999 39.9999C48.9999 38.8953 48.1045 37.9999 46.9999 37.9999Z" fill="#15A2D1"/>
<path fill-rule="evenodd" clip-rule="evenodd" d="M75.4345 5.15143C77.5132 3.37946 80.0696 3.443 81.9745 5.31354C84.1407 7.44112 84.3647 10.7423 82.0087 12.9551C79.842 14.9895 80.0857 17.4464 80.4218 19.7061C81.2159 25.0455 79.1941 28.8454 74.9433 31.7725C74.2253 32.2669 73.2832 32.7905 73.2704 33.7198C73.1999 38.9336 73.2369 44.1493 73.8349 49.3985C75.6629 45.1479 74.8736 40.6165 75.3671 35.9688C78.4084 31.2197 82.6923 28.2286 87.0097 25.1485C88.9701 28.6851 88.6726 33.0916 85.6474 34.8448C79.0579 38.6628 80.1969 44.6701 80.3222 50.5274C80.3429 51.4975 80.8203 52.2182 81.5868 52.7276C84.5007 54.6644 84.1257 56.9934 82.4745 59.5059C81.2175 59.9118 80.6741 58.8983 79.9638 58.2901C78.024 56.6298 76.0001 55.177 73.4228 54.6143C70.5709 53.9917 69.1348 52.3261 69.3261 49.1983C69.5275 45.9039 69.3784 42.587 69.3769 39.2803C69.3755 36.1381 69.7521 33.0946 66.8056 30.5684C64.7859 28.8367 65.5726 26.2728 67.2968 24.3487C69.0526 22.3894 71.2263 21.9804 73.5761 23.168C74.5222 23.6463 75.3329 24.3945 77.1308 25.6837C76.3415 20.7955 78.2734 16.5783 75.1659 12.7882C72.9347 10.0664 73.0876 7.15223 75.4345 5.15143ZM70.9999 26.0001C69.8954 26.0001 69 26.8956 68.9999 28.0001C68.9999 29.1046 69.8953 30.0001 70.9999 30.0001C72.1044 30 72.9999 29.1046 72.9999 28.0001C72.9998 26.8956 72.1044 26.0001 70.9999 26.0001ZM78.4999 7.00006C77.6716 7.00006 77.0001 7.6718 76.9999 8.50006C77 9.3284 77.6715 10.0001 78.4999 10.0001C79.3281 9.99992 79.9998 9.32831 79.9999 8.50006C79.9997 7.67188 79.3281 7.00021 78.4999 7.00006Z" fill="#15A2D1"/>
<path d="M515.5 11C521.851 11 527 16.1487 527 22.5C527 28.8513 521.851 34 515.5 34C509.149 34 504 28.8513 504 22.5C504 16.1487 509.149 11 515.5 11ZM511 25C509.895 25 509 25.8954 509 27C509 28.1046 509.895 29 511 29C512.105 29 513 28.1046 513 27C513 25.8954 512.105 25 511 25ZM521 25C519.895 25 519 25.8954 519 27C519 28.1046 519.895 29 521 29C522.105 29 523 28.1046 523 27C523 25.8954 522.105 25 521 25ZM516 18C513.791 18 512 19.7909 512 22C512 24.2091 513.791 26 516 26C518.209 26 520 24.2091 520 22C520 19.7909 518.209 18 516 18ZM511 15C509.895 15 509 15.8954 509 17C509 18.1046 509.895 19 511 19C512.105 19 513 18.1046 513 17C513 15.8954 512.105 15 511 15ZM521 15C519.895 15 519 15.8954 519 17C519 18.1046 519.895 19 521 19C522.105 19 523 18.1046 523 17C523 15.8954 522.105 15 521 15Z" fill="#0DBADE"/>
<path d="M52.0446 73.3202C52.0201 70.9873 53.8968 69.069 56.2297 69.0445C58.5627 69.02 60.4809 70.8983 60.5054 73.2313C60.53 75.5642 58.6517 77.4825 56.3187 77.507C53.9858 77.5315 52.0692 75.6532 52.0446 73.3202ZM58.6089 73.2512C58.5954 71.9642 57.5401 70.9292 56.2514 70.9428C54.966 70.9563 53.9311 72.0132 53.9446 73.3003C53.9582 74.5856 55.0151 75.6205 56.3004 75.607C57.5874 75.5935 58.6224 74.5365 58.6089 73.2512Z" fill="url(#paint6_linear_74_353)"/>
<path d="M59 73.1818H91.1386C91.5661 73.1818 91.9463 73.4536 92.0847 73.858L93.7831 78.8208C94.1024 79.7537 95.4363 79.7104 95.6944 78.7587L98.9482 66.7606C99.2249 65.7402 100.69 65.7914 100.894 66.8287L104.485 85.0133C104.704 86.1245 106.311 86.0722 106.457 84.9492L110.121 56.9102C110.267 55.7914 111.865 55.7334 112.092 56.8386L116.053 76.1302C116.263 77.1526 117.703 77.2101 117.993 76.2077L121.019 65.7799C121.271 64.9109 122.456 64.7969 122.869 65.6019L125.554 70.8332C125.722 71.16 126.056 71.3685 126.423 71.3763L143 71.7273" stroke="url(#paint7_linear_74_353)" stroke-width="3"/>
<path d="M453 73C453.965 73 454.785 73.3408 455.461 74.0225C456.136 74.704 456.474 75.5314 456.474 76.5049C456.474 77.2644 456.257 77.9516 455.823 78.5654C455.389 79.1791 454.834 79.602 454.158 79.835V81.9678C454.37 82.0457 454.568 82.1386 454.752 82.2461C454.936 82.3536 455.104 82.4847 455.258 82.6396L457.11 81.5293C457.091 81.4321 457.076 81.3302 457.066 81.2236C457.056 81.1169 457.052 81.0043 457.053 80.8867C457.053 79.9131 457.391 79.0859 458.066 78.4043C458.742 77.7227 459.562 77.3819 460.526 77.3818C461.491 77.3818 462.312 77.7227 462.987 78.4043C463.663 79.0858 464 79.9132 464 80.8867C464 81.8604 463.663 82.6885 462.987 83.3701C462.312 84.0517 461.491 84.3926 460.526 84.3926C460.083 84.3926 459.673 84.3195 459.297 84.1738C458.921 84.0282 458.578 83.8183 458.269 83.5449L456.387 84.6553C456.406 84.7526 456.421 84.8554 456.431 84.9629C456.441 85.0702 456.446 85.1721 456.445 85.2686C456.445 85.3651 456.439 85.4723 456.431 85.5898C456.422 85.7073 456.408 85.8146 456.387 85.9111L458.269 86.9922C458.577 86.7196 458.92 86.5109 459.297 86.3652C459.674 86.2196 460.083 86.1463 460.526 86.1455C461.491 86.1455 462.312 86.4863 462.987 87.168C463.663 87.8495 464 88.6769 464 89.6504C464 90.6241 463.663 91.4522 462.987 92.1338C462.312 92.8154 461.491 93.1562 460.526 93.1562C459.562 93.1562 458.742 92.8152 458.066 92.1338C457.391 91.4522 457.053 90.6241 457.053 89.6504C457.053 89.5337 457.058 89.4218 457.068 89.3145C457.078 89.207 457.092 89.1044 457.11 89.0078L455.258 87.9268C455.103 88.0825 454.935 88.2093 454.752 88.3066C454.569 88.404 454.371 88.4924 454.158 88.5703V90.7314C454.834 90.9651 455.389 91.3837 455.823 91.9873C456.258 92.5909 456.474 93.2728 456.474 94.0322C456.474 95.0059 456.136 95.834 455.461 96.5156C454.785 97.1972 453.965 97.5381 453 97.5381C452.035 97.5381 451.215 97.1971 450.54 96.5156C449.865 95.834 449.526 95.006 449.526 94.0322C449.526 93.2728 449.744 92.5909 450.179 91.9873C450.613 91.3839 451.167 90.9651 451.842 90.7314V88.5986C451.63 88.5208 451.427 88.4289 451.234 88.3223C451.041 88.2155 450.867 88.0833 450.713 87.9268L448.89 89.0078C448.909 89.1052 448.924 89.2079 448.934 89.3154C448.944 89.4228 448.948 89.5345 448.947 89.6504C448.947 90.6241 448.61 91.4522 447.935 92.1338C447.259 92.8154 446.439 93.1562 445.474 93.1562C444.509 93.1562 443.688 92.8154 443.013 92.1338C442.337 91.4522 442 90.624 442 89.6504C442 88.677 442.338 87.8494 443.013 87.168C443.688 86.4864 444.509 86.1455 445.474 86.1455C445.917 86.1455 446.333 86.2188 446.719 86.3652C447.105 86.5117 447.452 86.7204 447.761 86.9922L449.556 85.9404C449.536 85.8431 449.522 85.7359 449.512 85.6191C449.502 85.5024 449.496 85.3853 449.497 85.2686C449.498 85.1519 449.503 85.0399 449.513 84.9326C449.522 84.8251 449.536 84.7226 449.556 84.626L447.761 83.5449C447.452 83.8175 447.105 84.0274 446.719 84.1738C446.333 84.3203 445.917 84.3934 445.474 84.3926C444.509 84.3926 443.688 84.0517 443.013 83.3701C442.337 82.6885 442 81.8604 442 80.8867C442 79.9133 442.338 79.0858 443.013 78.4043C443.688 77.7227 444.509 77.3819 445.474 77.3818C446.439 77.3818 447.259 77.7227 447.935 78.4043C448.61 79.0858 448.947 79.9132 448.947 80.8867C448.947 81.0035 448.943 81.1205 448.934 81.2373C448.924 81.354 448.91 81.4613 448.89 81.5586L450.713 82.6104C450.867 82.4546 451.041 82.3278 451.234 82.2305C451.427 82.1332 451.63 82.0456 451.842 81.9678V79.835C451.167 79.6013 450.612 79.1782 450.179 78.5654C449.745 77.9524 449.527 77.2652 449.526 76.5049C449.526 75.5312 449.865 74.704 450.54 74.0225C451.215 73.3409 452.035 73 453 73Z" fill="url(#paint8_linear_74_353)"/>
</g>
<defs>
<linearGradient id="paint0_linear_74_353" x1="119.881" y1="16.8535" x2="119.881" y2="132.726" gradientUnits="userSpaceOnUse">
<stop stop-color="#047BC2"/>
<stop offset="0.5" stop-color="#641986"/>
<stop offset="1" stop-color="#7F1592"/>
</linearGradient>
<linearGradient id="paint1_linear_74_353" x1="348.125" y1="38.7559" x2="348.125" y2="120.609" gradientUnits="userSpaceOnUse">
<stop stop-color="#48227B"/>
<stop offset="1" stop-color="#821692"/>
</linearGradient>
<linearGradient id="paint2_linear_74_353" x1="214.867" y1="38.3203" x2="214.867" y2="120.839" gradientUnits="userSpaceOnUse">
<stop stop-color="#362675"/>
<stop offset="1" stop-color="#951298"/>
</linearGradient>
<linearGradient id="paint3_linear_74_353" x1="454.781" y1="31.377" x2="454.781" y2="119.028" gradientUnits="userSpaceOnUse">
<stop stop-color="#2E2276"/>
<stop offset="1" stop-color="#8A1698"/>
</linearGradient>
<linearGradient id="paint4_linear_74_353" x1="286.102" y1="38.6504" x2="286.102" y2="119.067" gradientUnits="userSpaceOnUse">
<stop stop-color="#402479"/>
<stop offset="1" stop-color="#8B1495"/>
</linearGradient>
<linearGradient id="paint5_linear_74_353" x1="515.225" y1="38.9609" x2="515.225" y2="118.966" gradientUnits="userSpaceOnUse">
<stop stop-color="#3B207B"/>
<stop offset="1" stop-color="#811794"/>
</linearGradient>
<linearGradient id="paint6_linear_74_353" x1="56.2305" y1="69.0445" x2="56.3195" y2="77.507" gradientUnits="userSpaceOnUse">
<stop stop-color="#1669B7"/>
<stop offset="1" stop-color="#71178C"/>
</linearGradient>
<linearGradient id="paint7_linear_74_353" x1="101" y1="51" x2="101" y2="91" gradientUnits="userSpaceOnUse">
<stop stop-color="#126CB9"/>
<stop offset="1" stop-color="#72178C"/>
</linearGradient>
<linearGradient id="paint8_linear_74_353" x1="453" y1="73" x2="453" y2="97.5381" gradientUnits="userSpaceOnUse">
<stop stop-color="#362179"/>
<stop offset="1" stop-color="#7A1892"/>
</linearGradient>
<clipPath id="clip0_74_353">
<rect width="507" height="133" fill="white" transform="translate(30 4)"/>
</clipPath>
</defs>
</svg>
